<svg width="45" height="75" fill="none" xmlns="http://www.w3.org/2000/svg"><mask id="mask0_171_6751" style="mask-type:alpha" maskUnits="userSpaceOnUse" x="0" y="0" width="45" height="75"><path d="M35.648 4.922c-.08-.473-.132-.82 0-1.461.757-1.965 1.55-2.995 3.72-3.381.462-.042.657-.046 1.014 0 2.083.272 2.871 2.051 3.276 2.71.404.66.704 1.602.867 2.04l.442 2.193c.043.446.1 1.039-.168 1.297-.183.176-.492.356-1.141.462-.65.106-1.465.826-1.611 1.854-.244 1.712-.242 1.855.186 2.853 0 0 1.543 3.525 1.712 5.278.169 1.753-.089 4.63-1.015 6.914-1.854 4.575-9.113 9.498-9.113 9.205 0-.293.14-8.924.14-8.924.14-.088.19-.061.508-.585 0 0 .845-1.168.845-2.045 0-.878.17-3.36 0-4.091-.169-.732-.676-2.046-.676-2.046s-.676-1.899-.676-2.776c0-.878 2.715-3.353 3.38-4.091.667-.739.516-1.341.328-1.922-.187-.58-1.825-2.118-2.018-3.484Z" fill="#55398E"/><path d="M29.386 26.616s.057.117-.037.198l-1.003 5.365-1.242.412-4.192-1.981s-.853-.425-1.855-.428c-1.002-.003-1.276-.386-2.128-1.1-.853-.713-1.24-1.198-1.24-1.198l-2.755-2.838-2.992-2.57-2.428-1.709s-1.09-.996-3.229-2.14c-2.138-1.145-4.409-3.283-5.407-4.26-.998-.977.308-1.417.999-.868.69.55.67.38 1.416.838.138.144.983.441 1.089.439.106-.002.426-.047 1.284.143.878.152 1.668.338 2.18 1.569l.714 1.426c.265.351.345.567.814.713.856.143 3.17 1.042 5.462 2.125 2.114 1.04 3.073 2.004 4.423 3.851 0 0 1.242 2.012 2.383 2.012h.856c.428 0 .85-.118.85-.118 2.195-.455 2.623-.492 4.478.119 1.04.341 1.404.3 1.523.198l.037-.198Z" fill="url('#paint0_linear_171_6751')"/><path d="M33.913 24.507c-.98-.279-1.65-.256-2.52-.058-.516.123-.58.187-.987.314-.338.2-.841.413-1.33.94-.347.334-.559.575-.995 1.176-.298.404-.495.877-.741 1.88 0 0-.308 2.642-.156 4.505.152 1.861 1.71 5.093 1.71 5.093s.236.542.29 1.84c.053 1.297 2.179 5.781 2.678 7.423.499 1.642-.163 2.62-.24 3.067-.075.447-1.536 1.844-.155 7.261 1.382 5.418 1.673 6.425 1.955 7.25.28.825.013 1.004-.086 1.31-.098.306-.424.532-.655.85 0 0-.578 1.014-.207 1.475.37.462 2.13 1.63 2.547 2.057.416.427.286.814.522 1.357.236.542.995 1.58 1.185 1.84.19.26.665.454.932.266.388-.352.253-1.305.088-2.171-.453-2.756-.953-4.63-1.8-7.536l-.342-2.993s-.027-2.046-.16-2.876c-.134-.83-.039-3.912-.039-3.912l.05-3.326c1.105-2.374.815-3.198.61-4.471-.205-1.273.237-3.626.336-4.407.098-.782.366-1.366.05-3.325-.316-1.96-.955-3.647-1.069-3.912-.114-.265-.28-.86-.129-1.72.465-.778.63-1.515.885-2.736.255-1.221.285-1.951.076-3.205l-.003-.016c-.208-1.247-.395-2.368-2.3-3.24Z" fill="url('#paint1_linear_171_6751')"/><path d="M37.52 11.46c0-.57-.039-.828-.998-1.117-.96-.289-6.7-.563-7.543-.401-2.211-1.792-11.281-3.204-11.71-3.49-.307-.205-1.71-.238-3.513-.055-.466.025-.81-.049-.886-.048-.268.003-.45-.139-.45-.139-.305-.146-.392.094-.328.29.191.258.583.445.898.57.279.076.471.137.868.138.559.005.559.005.839.14.28.134.57.427 1.141.57.57.143 1.284-.07 2.425.143 1.141.212 6.134 3.81 8.131 4.21 1.997.399 1.712.212 2.568.354.855.143 3.293 1.204 4.992 1.712.43.114 1.135.02 1.57-.143 0 0 1.283-.998 1.569-1.426.285-.428.427-.737.427-1.307Z" fill="url('#paint2_linear_171_6751')"/></mask><g mask="url('#mask0_171_6751')"><path d="M35.644 4.922c-.08-.473-.132-.82 0-1.461.757-1.965 1.55-2.995 3.72-3.381.462-.042.657-.046 1.014 0 2.083.272 2.87 2.051 3.275 2.71.405.66.705 1.602.867 2.04l.442 2.193c.044.446.101 1.039-.168 1.297-.183.176-.491.356-1.14.462-.65.106-1.465.826-1.612 1.854-.243 1.712-.241 1.855.187 2.853 0 0 1.542 3.525 1.711 5.278.17 1.753-.088 4.63-1.014 6.914-1.854 4.575-9.114 9.498-9.114 9.205 0-.293.141-8.924.141-8.924.14-.088.19-.061.508-.585 0 0 .845-1.168.845-2.045 0-.878.169-3.36 0-4.091-.17-.732-.676-2.046-.676-2.046s-.677-1.899-.677-2.776c0-.878 2.716-3.353 3.381-4.091.666-.739.515-1.341.328-1.922-.187-.58-1.825-2.118-2.018-3.484Z" fill="#fff"/><path d="M29.386 26.614s.057.118-.037.198l-1.003 5.365-1.242.413-4.192-1.982s-.853-.425-1.855-.428c-1.002-.002-1.276-.386-2.128-1.1-.853-.712-1.24-1.198-1.24-1.198l-2.755-2.837-2.992-2.57-2.428-1.71s-1.09-.995-3.229-2.14c-2.138-1.145-4.409-3.283-5.407-4.26-.998-.977.308-1.417.999-.868.69.55.67.38 1.416.838.138.144.983.441 1.089.44.106-.003.426-.048 1.284.142.878.152 1.668.338 2.18 1.569l.714 1.426c.265.352.345.568.814.714.856.142 3.17 1.042 5.462 2.124 2.114 1.04 3.073 2.004 4.423 3.852 0 0 1.242 2.012 2.383 2.012h.856c.428 0 .85-.118.85-.118 2.195-.456 2.623-.492 4.478.118 1.04.342 1.404.3 1.523.198l.037-.198Z" fill="url('#paint3_linear_171_6751')"/><g filter="url('#filter0_d_171_6751')"><path d="M33.913 24.505c-.981-.279-1.652-.256-2.52-.057-.516.122-.581.187-.988.313-.338.2-.841.413-1.33.94-.346.334-.559.575-.995 1.176-.297.405-.494.877-.741 1.88 0 0-.308 2.643-.156 4.505s1.71 5.093 1.71 5.093.236.543.29 1.84c.054 1.297 2.179 5.781 2.678 7.423.499 1.642-.163 2.62-.24 3.067-.075.447-1.536 1.844-.155 7.261 1.382 5.418 1.674 6.425 1.955 7.25.281.826.014 1.004-.085 1.31-.099.306-.425.533-.656.85 0 0-.577 1.014-.207 1.476.371.46 2.13 1.628 2.547 2.056.417.427.287.815.522 1.357.236.542.996 1.58 1.186 1.84.19.26.665.455.932.267.387-.353.252-1.306.087-2.172-.452-2.756-.953-4.63-1.8-7.536l-.342-2.992s-.026-2.047-.16-2.877c-.134-.83-.038-3.912-.038-3.912l.049-3.326c1.106-2.374.816-3.198.61-4.47-.205-1.274.238-3.627.336-4.408.099-.781.367-1.365.05-3.325-.315-1.96-.954-3.647-1.068-3.912-.114-.264-.282-.86-.13-1.72.465-.777.63-1.515.886-2.736.254-1.22.285-1.951.075-3.204l-.002-.017c-.208-1.247-.395-2.368-2.3-3.24Z" fill="url('#paint4_linear_171_6751')"/></g><g filter="url('#filter1_d_171_6751')"><path d="M37.519 11.46c0-.57-.04-.83-.999-1.118-.96-.289-6.7-.563-7.543-.401-2.211-1.792-11.281-3.204-11.709-3.49-.308-.205-1.712-.238-3.514-.055-.466.025-.81-.049-.886-.048-.268.003-.45-.139-.45-.139-.305-.146-.392.094-.328.29.191.258.583.445.898.57.279.076.472.137.868.138.56.005.56.005.84.14.28.134.57.427 1.14.57.57.143 1.284-.07 2.425.143 1.141.212 6.134 3.81 8.131 4.21 1.997.399 1.712.212 2.568.354.856.143 3.293 1.204 4.992 1.712.43.114 1.135.02 1.57-.143 0 0 1.283-.998 1.569-1.426.285-.428.428-.736.428-1.307Z" fill="url('#paint5_linear_171_6751')"/></g></g><defs><linearGradient id="paint0_linear_171_6751" x1="9.842" y1="3.126" x2="56.196" y2="19.206" gradientUnits="userSpaceOnUse"><stop stop-color="#B83F87"/><stop offset="1" stop-color="#524396"/></linearGradient><linearGradient id="paint1_linear_171_6751" x1="1.024" y1="26.067" x2="46.599" y2="26.417" gradientUnits="userSpaceOnUse"><stop stop-color="#524396"/><stop offset="1" stop-color="#B73F86"/></linearGradient><linearGradient id="paint2_linear_171_6751" x1="11.421" y1="6.785" x2="36.099" y2="12.063" gradientUnits="userSpaceOnUse"><stop stop-color="#A33885"/><stop offset="1" stop-color="#5A4394"/></linearGradient><linearGradient id="paint3_linear_171_6751" x1="6.571" y1="14.058" x2="25.829" y2="30.748" gradientUnits="userSpaceOnUse"><stop stop-color="#fff"/><stop offset="1" stop-color="#fff"/></linearGradient><linearGradient id="paint4_linear_171_6751" x1="32.105" y1="24.899" x2="37.097" y2="76.109" gradientUnits="userSpaceOnUse"><stop stop-color="#fff"/><stop offset="1" stop-color="#fff"/></linearGradient><linearGradient id="paint5_linear_171_6751" x1="11.419" y1="6.784" x2="36.097" y2="12.062" gradientUnits="userSpaceOnUse"><stop stop-color="#fff"/><stop offset="1" stop-color="#fff"/></linearGradient><filter id="filter0_d_171_6751" x="20.141" y="17.297" width="24.773" height="64.133" filterUnits="userSpaceOnUse" color-interpolation-filters="sRGB"><feFlood flood-opacity="0" result="BackgroundImageFix"/><feColorMatrix in="SourceAlpha" values="0 0 0 0 0 0 0 0 0 0 0 0 0 0 0 0 0 0 127 0" result="hardAlpha"/><feOffset/><feGaussianBlur stdDeviation="3.5"/><feComposite in2="hardAlpha" operator="out"/><feColorMatrix values="0 0 0 0 0 0 0 0 0 0 0 0 0 0 0 0 0 0 1 0"/><feBlend in2="BackgroundImageFix" result="effect1_dropShadow_171_6751"/><feBlend in="SourceGraphic" in2="effect1_dropShadow_171_6751" result="shape"/></filter><filter id="filter1_d_171_6751" x="5.07" y="-.836" width="39.445" height="22.219" filterUnits="userSpaceOnUse" color-interpolation-filters="sRGB"><feFlood flood-opacity="0" result="BackgroundImageFix"/><feColorMatrix in="SourceAlpha" values="0 0 0 0 0 0 0 0 0 0 0 0 0 0 0 0 0 0 127 0" result="hardAlpha"/><feOffset/><feGaussianBlur stdDeviation="3.5"/><feComposite in2="hardAlpha" operator="out"/><feColorMatrix values="0 0 0 0 0 0 0 0 0 0 0 0 0 0 0 0 0 0 1 0"/><feBlend in2="BackgroundImageFix" result="effect1_dropShadow_171_6751"/><feBlend in="SourceGraphic" in2="effect1_dropShadow_171_6751" result="shape"/></filter></defs></svg>