<svg width="81" height="134" fill="none" xmlns="http://www.w3.org/2000/svg"><mask id="mask0_171_6557" style="mask-type:alpha" maskUnits="userSpaceOnUse" x="0" y="0" width="81" height="134"><path d="M63.773 8.87c-.144-.852-.238-1.474 0-2.63 1.363-3.538 2.79-5.391 6.695-6.087.833-.076 1.184-.082 1.826 0 3.75.49 5.17 3.693 5.898 4.88.728 1.187 1.269 2.883 1.56 3.673l.796 3.946c.079.804.182 1.87-.302 2.336-.33.318-.885.64-2.054.831-1.169.19-2.637 1.487-2.9 3.339-.439 3.081-.435 3.338.335 5.136 0 0 2.777 6.346 3.082 9.501.304 3.156-.16 8.335-1.826 12.448-3.338 8.236-16.407 17.1-16.407 16.572 0-.528.253-16.067.253-16.067.252-.158.341-.11.913-1.052 0 0 1.522-2.103 1.522-3.683 0-1.58.304-6.048 0-7.365-.304-1.317-1.217-3.683-1.217-3.683s-1.218-3.418-1.218-4.997c0-1.58 4.888-6.036 6.087-7.366 1.199-1.33.927-2.414.59-3.459-.337-1.045-3.287-3.814-3.633-6.273Z" fill="#55398E"/><path d="M52.5 47.925s.101.212-.067.357l-1.806 9.659-2.236.742-7.548-3.567s-1.535-.765-3.339-.77c-1.803-.005-2.296-.695-3.832-1.98-1.535-1.283-2.23-2.157-2.23-2.157l-4.96-5.109-5.387-4.627-4.372-3.077s-1.962-1.793-5.812-3.853c-3.85-2.06-7.938-5.91-9.735-7.67-1.797-1.759.554-2.55 1.798-1.561 1.244.988 1.205.682 2.55 1.509.248.258 1.77.793 1.96.79.19-.005.767-.085 2.311.256 1.58.275 3.004.61 3.927 2.825l1.284 2.568c.476.632.621 1.021 1.466 1.284 1.54.257 5.706 1.876 9.833 3.825 3.806 1.872 5.532 3.607 7.961 6.933 0 0 2.237 3.623 4.291 3.623h1.541c.77 0 1.53-.212 1.53-.212 3.953-.82 4.723-.886 8.062.212 1.871.616 2.527.541 2.743.357l.066-.357Z" fill="url('#paint0_linear_171_6557')"/><path d="M60.65 44.129c-1.767-.502-2.974-.46-4.539-.103-.928.22-1.044.336-1.776.564-.609.361-1.515.744-2.394 1.692-.624.6-1.007 1.035-1.792 2.118-.535.728-.89 1.578-1.335 3.384 0 0-.553 4.758-.28 8.11.274 3.352 3.079 9.17 3.079 9.17s.424.976.521 3.311c.097 2.336 3.923 10.408 4.822 13.364.898 2.956-.294 4.716-.43 5.521-.138.806-2.768 3.32-.28 13.073 2.486 9.754 3.012 11.566 3.518 13.052.506 1.486.024 1.807-.153 2.358-.178.552-.765.959-1.181 1.531 0 0-1.04 1.825-.372 2.656.667.83 3.834 2.932 4.585 3.702.75.769.516 1.467.94 2.443.424.977 1.792 2.846 2.134 3.313.342.468 1.197.818 1.678.479.698-.634.454-2.35.157-3.909-.814-4.961-1.716-8.336-3.241-13.567l-.615-5.387s-.048-3.684-.289-5.179c-.24-1.494-.068-7.042-.068-7.042l.088-5.989c1.991-4.273 1.47-5.757 1.1-8.048-.37-2.292.427-6.529.604-7.935.177-1.406.66-2.458.09-5.986-.568-3.528-1.718-6.565-1.924-7.042-.205-.476-.506-1.548-.232-3.097.837-1.4 1.135-2.727 1.593-4.925.459-2.198.514-3.513.137-5.77l-.005-.03c-.375-2.244-.711-4.262-4.14-5.832Z" fill="url('#paint1_linear_171_6557')"/><path d="M67.143 20.642c0-1.027-.07-1.492-1.798-2.012-1.727-.52-12.06-1.013-13.58-.722-3.98-3.227-20.309-5.769-21.079-6.282-.555-.37-3.082-.43-6.325-.1-.84.044-1.46-.088-1.596-.087-.483.005-.81-.25-.81-.25-.55-.263-.705.17-.591.523.345.464 1.05.8 1.616 1.025.503.138.85.248 1.564.25 1.006.007 1.006.007 1.51.25s1.027.77 2.055 1.027c1.027.257 2.31-.125 4.365.257s11.043 6.86 14.638 7.578c3.596.72 3.082.383 4.623.64 1.54.257 5.928 2.167 8.988 3.081.773.206 2.042.035 2.825-.256 0 0 2.311-1.798 2.825-2.568.513-.77.77-1.326.77-2.354Z" fill="url('#paint2_linear_171_6557')"/></mask><g mask="url('#mask0_171_6557')"><path d="M63.766 8.87c-.144-.852-.238-1.474 0-2.63 1.363-3.538 2.79-5.391 6.696-6.087.832-.076 1.183-.082 1.826 0 3.75.49 5.169 3.693 5.897 4.88.729 1.187 1.269 2.883 1.56 3.673l.796 3.946c.08.804.183 1.87-.301 2.336-.33.318-.886.64-2.055.831-1.169.19-2.637 1.487-2.9 3.339-.438 3.081-.435 3.338.335 5.136 0 0 2.778 6.346 3.082 9.501.304 3.156-.16 8.335-1.826 12.448-3.338 8.236-16.407 17.1-16.407 16.572 0-.528.253-16.067.253-16.067.253-.158.341-.11.913-1.052 0 0 1.522-2.103 1.522-3.683 0-1.58.305-6.048 0-7.365-.304-1.317-1.217-3.683-1.217-3.683s-1.218-3.418-1.218-4.997c0-1.58 4.889-6.036 6.087-7.366 1.2-1.33.927-2.414.59-3.459-.337-1.045-3.286-3.814-3.633-6.273Z" fill="#fff"/><path d="M52.5 47.92s.101.212-.067.356l-1.806 9.66-2.236.742-7.548-3.567s-1.535-.766-3.339-.77c-1.803-.005-2.296-.696-3.832-1.98-1.535-1.284-2.23-2.157-2.23-2.157l-4.96-5.11-5.387-4.626-4.372-3.077s-1.962-1.793-5.812-3.853c-3.85-2.061-7.938-5.911-9.735-7.67-1.797-1.759.554-2.55 1.798-1.562 1.244.989 1.205.683 2.55 1.51.248.257 1.77.793 1.96.789.19-.004.767-.085 2.311.257 1.58.274 3.004.609 3.927 2.825l1.284 2.568c.476.632.621 1.02 1.466 1.284 1.54.256 5.706 1.876 9.833 3.824 3.806 1.872 5.532 3.608 7.961 6.934 0 0 2.237 3.623 4.291 3.623h1.541c.77 0 1.53-.213 1.53-.213 3.953-.82 4.723-.886 8.062.213 1.871.615 2.527.54 2.743.356l.066-.356Z" fill="url('#paint3_linear_171_6557')"/><g filter="url('#filter0_d_171_6557')"><path d="M60.649 44.126c-1.766-.501-2.973-.46-4.538-.103-.928.221-1.045.337-1.776.564-.61.362-1.515.744-2.395 1.693-.624.6-1.006 1.034-1.792 2.117-.535.728-.89 1.579-1.334 3.385 0 0-.554 4.757-.28 8.109.273 3.352 3.078 9.17 3.078 9.17s.424.976.521 3.312c.097 2.335 3.924 10.408 4.822 13.364.898 2.956-.294 4.715-.43 5.521-.137.806-2.768 3.32-.28 13.073 2.487 9.753 3.012 11.566 3.518 13.052.507 1.485.025 1.807-.153 2.358-.178.551-.764.958-1.18 1.531 0 0-1.04 1.825-.373 2.655.668.831 3.834 2.933 4.585 3.702.75.77.516 1.467.94 2.444.424.976 1.793 2.846 2.135 3.313.342.467 1.197.818 1.677.479.698-.635.454-2.351.157-3.91-.814-4.96-1.715-8.336-3.241-13.567l-.615-5.387s-.047-3.684-.288-5.178c-.241-1.494-.069-7.042-.069-7.042l.089-5.99c1.99-4.273 1.469-5.756 1.1-8.048-.37-2.291.426-6.528.603-7.934.178-1.407.66-2.458.091-5.986-.569-3.529-1.719-6.566-1.924-7.042-.206-.477-.506-1.549-.233-3.098.837-1.399 1.135-2.727 1.594-4.925.458-2.198.513-3.513.136-5.769l-.005-.03c-.374-2.244-.71-4.262-4.14-5.833Z" fill="url('#paint4_linear_171_6557')"/></g><g filter="url('#filter1_d_171_6557')"><path d="M67.142 20.643c0-1.027-.07-1.492-1.797-2.012-1.727-.52-12.06-1.013-13.58-.722-3.98-3.226-20.31-5.769-21.08-6.282-.554-.37-3.081-.43-6.325-.1-.84.044-1.46-.088-1.595-.086-.483.005-.81-.25-.81-.25-.55-.264-.706.17-.591.522.344.464 1.049.8 1.616 1.025.503.138.85.248 1.563.25 1.006.007 1.006.007 1.51.25.505.243 1.028.77 2.055 1.027 1.027.257 2.311-.125 4.366.257 2.054.382 11.042 6.86 14.638 7.578 3.595.72 3.081.383 4.622.64s5.928 2.167 8.988 3.082c.773.206 2.043.034 2.825-.257 0 0 2.312-1.798 2.825-2.568.514-.77.77-1.326.77-2.354Z" fill="url('#paint5_linear_171_6557')"/></g></g><defs><linearGradient id="paint0_linear_171_6557" x1="17.313" y1="5.636" x2="100.765" y2="34.585" gradientUnits="userSpaceOnUse"><stop stop-color="#B83F87"/><stop offset="1" stop-color="#524396"/></linearGradient><linearGradient id="paint1_linear_171_6557" x1="1.439" y1="46.937" x2="83.488" y2="47.567" gradientUnits="userSpaceOnUse"><stop stop-color="#524396"/><stop offset="1" stop-color="#B73F86"/></linearGradient><linearGradient id="paint2_linear_171_6557" x1="20.157" y1="12.224" x2="64.584" y2="21.726" gradientUnits="userSpaceOnUse"><stop stop-color="#A33885"/><stop offset="1" stop-color="#5A4394"/></linearGradient><linearGradient id="paint3_linear_171_6557" x1="11.426" y1="25.316" x2="46.094" y2="55.362" gradientUnits="userSpaceOnUse"><stop stop-color="#fff"/><stop offset="1" stop-color="#fff"/></linearGradient><linearGradient id="paint4_linear_171_6557" x1="57.393" y1="44.836" x2="66.381" y2="137.029" gradientUnits="userSpaceOnUse"><stop stop-color="#fff"/><stop offset="1" stop-color="#fff"/></linearGradient><linearGradient id="paint5_linear_171_6557" x1="20.156" y1="12.225" x2="64.584" y2="21.727" gradientUnits="userSpaceOnUse"><stop stop-color="#fff"/><stop offset="1" stop-color="#fff"/></linearGradient><filter id="filter0_d_171_6557" x="41.461" y="36.75" width="33.383" height="104.25" filterUnits="userSpaceOnUse" color-interpolation-filters="sRGB"><feFlood flood-opacity="0" result="BackgroundImageFix"/><feColorMatrix in="SourceAlpha" values="0 0 0 0 0 0 0 0 0 0 0 0 0 0 0 0 0 0 127 0" result="hardAlpha"/><feOffset/><feGaussianBlur stdDeviation="3.5"/><feComposite in2="hardAlpha" operator="out"/><feColorMatrix values="0 0 0 0 0 0 0 0 0 0 0 0 0 0 0 0 0 0 1 0"/><feBlend in2="BackgroundImageFix" result="effect1_dropShadow_171_6557"/><feBlend in="SourceGraphic" in2="effect1_dropShadow_171_6557" result="shape"/></filter><filter id="filter1_d_171_6557" x="14.328" y="4.109" width="59.813" height="28.805" filterUnits="userSpaceOnUse" color-interpolation-filters="sRGB"><feFlood flood-opacity="0" result="BackgroundImageFix"/><feColorMatrix in="SourceAlpha" values="0 0 0 0 0 0 0 0 0 0 0 0 0 0 0 0 0 0 127 0" result="hardAlpha"/><feOffset/><feGaussianBlur stdDeviation="3.5"/><feComposite in2="hardAlpha" operator="out"/><feColorMatrix values="0 0 0 0 0 0 0 0 0 0 0 0 0 0 0 0 0 0 1 0"/><feBlend in2="BackgroundImageFix" result="effect1_dropShadow_171_6557"/><feBlend in="SourceGraphic" in2="effect1_dropShadow_171_6557" result="shape"/></filter></defs></svg>