<svg width="40" height="40" fill="none" xmlns="http://www.w3.org/2000/svg"><g clip-path="url('#clip0_171_6499')"><path d="M24.219 24.172c0 .416.065.716.195.898.13.183.352.274.664.274.703 0 1.26-.417 1.67-1.25.41-.834.615-1.992.615-3.477 0-1.12-.192-2.1-.576-2.94a5.69 5.69 0 0 0-1.582-2.08 6.82 6.82 0 0 0-2.353-1.23 9.882 9.882 0 0 0-2.891-.41 8.844 8.844 0 0 0-3.037.527c-.97.352-1.826.87-2.569 1.553-.742.684-1.334 1.537-1.777 2.559-.443 1.022-.664 2.203-.664 3.545 0 1.276.202 2.405.606 3.388.403.983.976 1.807 1.718 2.471.742.664 1.638 1.169 2.686 1.514s2.217.517 3.506.517c.872 0 1.653-.055 2.343-.166.69-.11 1.485-.322 2.383-.634l.39 1.62c-.898.287-1.796.482-2.694.587a21.51 21.51 0 0 1-2.461.156c-1.68 0-3.168-.225-4.463-.674-1.296-.45-2.383-1.084-3.262-1.904a7.898 7.898 0 0 1-1.992-2.979c-.45-1.165-.674-2.464-.674-3.896 0-1.446.25-2.767.752-3.965a9.081 9.081 0 0 1 2.08-3.076c.885-.853 1.94-1.514 3.164-1.983 1.224-.469 2.559-.703 4.004-.703 1.497 0 2.822.212 3.975.635 1.152.423 2.115.996 2.89 1.719a7 7 0 0 1 1.748 2.548c.39.977.586 2.012.586 3.106 0 .937-.078 1.81-.234 2.617-.156.807-.423 1.507-.8 2.1a3.951 3.951 0 0 1-1.505 1.386c-.625.332-1.4.498-2.324.498-.846 0-1.527-.172-2.041-.517-.514-.345-.81-.889-.889-1.631-.208.82-.589 1.384-1.142 1.69-.554.305-1.221.458-2.002.458-.521 0-1.013-.1-1.475-.302a3.427 3.427 0 0 1-1.22-.909c-.352-.403-.632-.908-.84-1.513-.209-.606-.313-1.312-.313-2.12 0-.82.095-1.555.283-2.206.19-.651.466-1.205.83-1.66a3.596 3.596 0 0 1 1.348-1.045c.534-.241 1.146-.362 1.836-.362.742 0 1.341.134 1.797.4.456.268.788.629.996 1.085l.703-1.27h2.012v7.05Zm-2.95-3.164c0-.664-.198-1.143-.595-1.436-.397-.293-.798-.44-1.201-.44-.443 0-.866.21-1.27.626-.404.416-.605 1.152-.605 2.207 0 .846.169 1.494.508 1.943.338.45.794.674 1.367.674.39 0 .787-.143 1.191-.43.404-.286.605-.774.605-1.465v-1.68Z" fill="#3A3A3A"/></g><rect x="1" y="1" width="38" height="38" rx="19" stroke="#3A3A3A" stroke-width="2"/><defs><clipPath id="clip0_171_6499"><path fill="#fff" transform="matrix(1 0 0 -1 10 32)" d="M0 0h20v20H0z"/></clipPath></defs></svg>