<svg width="40" height="40" fill="none" xmlns="http://www.w3.org/2000/svg"><g clip-path="url('#clip0_171_6505')"><path d="M19.316 23.232a19.22 19.22 0 0 1-2.393 2.051c-.8.573-1.384.677-1.748.313-.521-.521-1.026-.899-1.514-1.133-.488-.235-1.305.11-2.451 1.035-1.146.924-1.478 1.709-.996 2.353.482.645.97 1.215 1.465 1.71.286.299.758.445 1.416.439.657-.007 1.425-.176 2.304-.508.88-.332 1.84-.837 2.881-1.514 1.042-.677 2.097-1.55 3.164-2.617 1.068-1.068 1.94-2.122 2.618-3.164.677-1.042 1.181-2.002 1.513-2.88.332-.88.498-1.648.498-2.305 0-.658-.143-1.13-.43-1.417a15.73 15.73 0 0 0-1.708-1.464c-.645-.482-1.43-.15-2.354.996-.911 1.146-1.25 1.963-1.015 2.45.234.49.605.994 1.113 1.515.364.364.26.947-.313 1.748-.573.8-1.256 1.598-2.05 2.392Z" fill="#3A3A3A"/></g><rect x="1" y="1" width="38" height="38" rx="19" stroke="#3A3A3A" stroke-width="2"/><defs><clipPath id="clip0_171_6505"><path fill="#fff" transform="matrix(1 0 0 -1 10 32)" d="M0 0h20v20H0z"/></clipPath></defs></svg>