<svg width="37" height="37" fill="none" xmlns="http://www.w3.org/2000/svg"><path fill-rule="evenodd" clip-rule="evenodd" d="M14.844.863a8.174 8.174 0 0 1 7.312 0l12.228 6.114a4.733 4.733 0 0 1 2.504 3.21l-1.87 1.247-8.577 5.147-7.941 4.764-7.94-4.764-8.579-5.147-1.87-1.247a4.733 4.733 0 0 1 2.505-3.21L14.844.863ZM0 13.216v14.797a8.174 8.174 0 0 0 8.174 8.174h20.652A8.174 8.174 0 0 0 37 28.014V13.215l-.575.384a1.415 1.415 0 0 1-.052.033l-8.604 5.162-8.605 5.163a1.29 1.29 0 0 1-1.328 0L9.23 18.794.627 13.632a1.32 1.32 0 0 1-.052-.033L0 13.216Z" fill="#fff"/></svg>