<svg width="40" height="40" fill="none" xmlns="http://www.w3.org/2000/svg"><path fill-rule="evenodd" clip-rule="evenodd" d="M17.626 9.501a4.75 4.75 0 0 1 4.248 0l7.106 3.553a2.75 2.75 0 0 1 1.455 1.866l-1.086.724-4.985 2.99-4.614 2.77-4.614-2.77-4.985-2.99-1.086-.724a2.75 2.75 0 0 1 1.455-1.866l7.106-3.553ZM9 16.68v8.599a4.75 4.75 0 0 0 4.75 4.75h12a4.75 4.75 0 0 0 4.75-4.75v-8.599l-.334.223a.727.727 0 0 1-.03.019l-5 3-5 3a.75.75 0 0 1-.772 0l-5-3-5-3a.729.729 0 0 1-.03-.02L9 16.68Z" fill="#fff"/><rect x="1" y="1" width="38" height="38" rx="19" stroke="#fff" stroke-width="2"/></svg>