<svg width="40" height="40" fill="none" xmlns="http://www.w3.org/2000/svg"><g clip-path="url('#clip0_171_6544')"><path d="m29.453 15.71-6.015-2.987a.837.837 0 0 0-.44-.118.837.837 0 0 0-.44.118l-5.644 2.812-5.605-1.875a.904.904 0 0 0-.46-.039c-.162.026-.309.085-.439.176a.929.929 0 0 0-.303.351c-.071.144-.107.3-.107.47v12.987c0 .196.049.375.146.538a.895.895 0 0 0 .4.36l6.017 3.009c.065.026.136.049.214.068.078.02.15.03.215.03.078 0 .156-.007.235-.02a.606.606 0 0 0 .214-.078l5.645-2.813 5.605 1.856a.983.983 0 0 0 .46.049.854.854 0 0 0 .439-.186.992.992 0 0 0 .41-.8V16.608a.99.99 0 0 0-.146-.517 1.024 1.024 0 0 0-.4-.381Zm-11.445 1.524 3.984-2.011V27l-3.984 1.992V17.234Zm-6.016-1.23 4.004 1.328v11.66L11.992 27V16.004ZM28.008 28.23l-4.004-1.328v-11.68l4.004 2.012V28.23Z" fill="#fff"/></g><rect x="1" y="1" width="38" height="38" rx="19" stroke="#fff" stroke-width="2"/><defs><clipPath id="clip0_171_6544"><path fill="#fff" transform="matrix(1 0 0 -1 10 32)" d="M0 0h20v20H0z"/></clipPath></defs></svg>