<svg width="40" height="40" fill="none" xmlns="http://www.w3.org/2000/svg"><path d="M17.786 11.211A2.75 2.75 0 0 0 14.7 9.028l-3.41.487c-1.336.191-2.409 1.358-2.28 2.789.857 9.47 8.398 17.011 17.869 17.868 1.43.13 2.597-.943 2.788-2.28l.487-3.41a2.75 2.75 0 0 0-2.183-3.086l-1.891-.378a2.658 2.658 0 0 0-2.733 1.132 1.158 1.158 0 0 1-1.783.177l-4.708-4.709a1.158 1.158 0 0 1 .176-1.782 2.658 2.658 0 0 0 1.132-2.733l-.378-1.892Z" fill="#fff"/><rect x="1" y="1" width="38" height="38" rx="19" stroke="#fff" stroke-width="2"/></svg>