<svg width="37" height="37" fill="none" xmlns="http://www.w3.org/2000/svg"><path d="M14.936 3.759A4.675 4.675 0 0 0 9.691.047L3.894.876C1.621 1.2-.202 3.183.018 5.616c1.456 16.101 14.275 28.92 30.376 30.376 2.433.22 4.416-1.603 4.74-3.876l.829-5.797a4.675 4.675 0 0 0-3.712-5.245l-3.215-.643c-1.796-.36-3.63.4-4.647 1.924a1.969 1.969 0 0 1-3.03.3l-8.004-8.004a1.969 1.969 0 0 1 .3-3.03 4.519 4.519 0 0 0 1.924-4.647l-.643-3.215Z" fill="#fff"/><path fill-rule="evenodd" clip-rule="evenodd" d="M23.68 5.955c0-.704.57-1.275 1.275-1.275h5.1c.704 0 1.275.57 1.275 1.275v5.1a1.275 1.275 0 1 1-2.55 0V7.23h-3.825c-.704 0-1.275-.571-1.275-1.275Z" fill="#fff"/><path fill-rule="evenodd" clip-rule="evenodd" d="M30.953 5.053a1.275 1.275 0 0 1 0 1.803l-6.8 6.8a1.275 1.275 0 1 1-1.803-1.803l6.8-6.8a1.275 1.275 0 0 1 1.803 0Z" fill="#fff"/></svg>