<svg width="101" height="99" fill="none" xmlns="http://www.w3.org/2000/svg"><path d="M50.185 99c6.905 0 13.387-1.305 19.445-3.915 6.058-2.61 11.351-6.156 15.878-10.635 4.528-4.48 8.11-9.717 10.749-15.71 2.638-5.995 3.957-12.408 3.957-19.24 0-6.832-1.319-13.245-3.957-19.24-2.639-5.993-6.221-11.23-10.749-15.71-4.527-4.48-9.82-8.024-15.878-10.634C63.572 1.306 57.09 0 50.185 0 43.28 0 36.798 1.305 30.74 3.916c-6.058 2.61-11.35 6.155-15.878 10.634-4.527 4.48-8.11 9.717-10.748 15.71C1.475 36.256.156 42.669.156 49.5c0 6.832 1.32 13.245 3.958 19.24 2.638 5.993 6.22 11.23 10.748 15.71 4.527 4.48 9.82 8.024 15.878 10.635C36.798 97.695 43.28 99 50.185 99Zm0-95.906c6.45 0 12.524 1.224 18.224 3.674 5.7 2.449 10.667 5.768 14.9 9.958 4.235 4.189 7.59 9.104 10.065 14.743 2.476 5.64 3.713 11.65 3.713 18.031 0 6.38-1.237 12.391-3.713 18.03-2.475 5.64-5.83 10.555-10.064 14.744-4.234 4.19-9.201 7.51-14.901 9.958-5.7 2.45-11.775 3.674-18.224 3.674s-12.523-1.224-18.223-3.674c-5.7-2.449-10.667-5.768-14.901-9.958-4.235-4.189-7.59-9.104-10.065-14.743C4.521 61.89 3.283 55.88 3.283 49.5c0-6.38 1.238-12.391 3.713-18.03 2.476-5.64 5.83-10.555 10.065-14.744 4.234-4.19 9.2-7.51 14.9-9.958 5.7-2.45 11.775-3.674 18.224-3.674ZM33.672 42.249a5.506 5.506 0 0 0 2.491.193 6.046 6.046 0 0 0 2.297-.87c.39-.258.635-.596.733-1.015.097-.419.048-.79-.147-1.112-.26-.386-.603-.628-1.026-.725a1.783 1.783 0 0 0-1.222.145 2.303 2.303 0 0 1-1.025.484 2.266 2.266 0 0 1-1.124-.097 3.335 3.335 0 0 1-.977-.629 6.857 6.857 0 0 1-.977-1.111 5.226 5.226 0 0 1-.44-1.257 2.727 2.727 0 0 1 .049-1.354c.065-.45.244-.87.537-1.257a4.147 4.147 0 0 1 1.026-.966c.977-.58 2.036-.758 3.176-.532 1.14.226 2.1.628 2.882 1.209 1.368 1.03 2.378 2.465 3.03 4.302.65 1.837.977 4.238.977 7.202 0 4.383-.994 8.895-2.98 13.535-1.987 4.641-4.87 7.928-8.648 9.862-.391.193-.652.483-.782.87s-.098.773.098 1.16c.13.258.325.467.586.629.26.16.521.241.782.241.13 0 .244-.016.342-.048.097-.032.211-.08.342-.145a19.441 19.441 0 0 0 5.96-4.69 27.673 27.673 0 0 0 4.202-6.573 34.204 34.204 0 0 0 2.443-7.493c.52-2.578.781-5.027.781-7.348 0-3.416-.423-6.268-1.27-8.556-.847-2.288-2.182-4.076-4.006-5.365-1.433-1.16-3.045-1.805-4.837-1.934-1.791-.129-3.371.226-4.739 1.063a5.792 5.792 0 0 0-1.905 1.74 6.718 6.718 0 0 0-1.026 2.418 6.768 6.768 0 0 0-.098 2.562c.13.87.423 1.66.88 2.368.52.774 1.09 1.418 1.71 1.934.618.516 1.253.902 1.905 1.16Zm25.014 0a5.506 5.506 0 0 0 2.492.193 6.046 6.046 0 0 0 2.296-.87c.391-.258.635-.596.733-1.015.098-.419.049-.79-.147-1.112-.26-.386-.602-.628-1.026-.725a1.783 1.783 0 0 0-1.221.145 2.303 2.303 0 0 1-1.026.484 2.266 2.266 0 0 1-1.124-.097 3.336 3.336 0 0 1-.977-.629 6.857 6.857 0 0 1-.977-1.111 5.221 5.221 0 0 1-.44-1.257 2.725 2.725 0 0 1 .05-1.354c.064-.45.243-.87.537-1.257a4.15 4.15 0 0 1 1.026-.966c.977-.58 2.035-.758 3.175-.532 1.14.226 2.101.628 2.883 1.209 1.368 1.03 2.377 2.465 3.029 4.302.651 1.837.977 4.238.977 7.202 0 4.383-.993 8.895-2.98 13.535-1.987 4.641-4.87 7.928-8.648 9.862-.39.193-.651.483-.782.87-.13.387-.097.773.098 1.16.13.258.326.467.587.629.26.16.52.241.781.241.13 0 .244-.016.342-.048.098-.032.212-.08.342-.145a19.441 19.441 0 0 0 5.96-4.69 27.67 27.67 0 0 0 4.202-6.573 34.198 34.198 0 0 0 2.443-7.493c.521-2.578.782-5.027.782-7.348 0-3.416-.424-6.268-1.27-8.556-.847-2.288-2.183-4.076-4.007-5.365-1.433-1.16-3.045-1.805-4.836-1.934-1.792-.129-3.371.226-4.74 1.063a5.792 5.792 0 0 0-1.905 1.74 6.716 6.716 0 0 0-1.026 2.418 6.768 6.768 0 0 0-.098 2.562c.13.87.424 1.66.88 2.368.521.774 1.09 1.418 1.71 1.934a7.03 7.03 0 0 0 1.905 1.16Z" fill="#000"/></svg>