<svg width="20" height="20" fill="none" xmlns="http://www.w3.org/2000/svg"><path d="m10.605 9.813-2.304-2.5a.532.532 0 0 1-.137-.362c0-.137.046-.257.137-.361a.496.496 0 0 1 .722 0l2.793 2.87a.446.446 0 0 1 .157.352c0 .144-.052.26-.157.352l-2.793 2.871a.496.496 0 0 1-.859-.361c0-.137.046-.257.137-.361l2.304-2.5ZM9.61.203a9.26 9.26 0 0 1 3.74.762 9.798 9.798 0 0 1 3.047 2.06 9.797 9.797 0 0 1 2.061 3.047 9.26 9.26 0 0 1 .762 3.74 9.26 9.26 0 0 1-.762 3.74 9.797 9.797 0 0 1-2.06 3.048 9.799 9.799 0 0 1-3.047 2.06 9.26 9.26 0 0 1-3.74.762 9.26 9.26 0 0 1-3.74-.762 9.799 9.799 0 0 1-3.048-2.06 9.797 9.797 0 0 1-2.06-3.047A9.26 9.26 0 0 1 0 9.813a9.26 9.26 0 0 1 .762-3.74 9.797 9.797 0 0 1 2.06-3.048A9.798 9.798 0 0 1 5.87.965 9.26 9.26 0 0 1 9.61.203Zm0 17.969a8.107 8.107 0 0 0 3.252-.654 8.358 8.358 0 0 0 2.647-1.797 8.7 8.7 0 0 0 1.797-2.656 8.005 8.005 0 0 0 .664-3.252 8.005 8.005 0 0 0-.664-3.252 8.7 8.7 0 0 0-1.797-2.657 8.357 8.357 0 0 0-2.647-1.797 8.107 8.107 0 0 0-3.252-.654 8.107 8.107 0 0 0-3.252.654 8.474 8.474 0 0 0-4.453 4.454 8.107 8.107 0 0 0-.654 3.252c0 1.158.218 2.242.654 3.252a8.473 8.473 0 0 0 4.453 4.453 8.107 8.107 0 0 0 3.252.654Z" fill="#3A3A3A"/></svg>