<svg width="20" height="21" fill="none" xmlns="http://www.w3.org/2000/svg"><path d="m10.605 10.422-2.304-2.5a.532.532 0 0 1-.137-.361c0-.137.046-.258.137-.362a.496.496 0 0 1 .722 0l2.793 2.871a.446.446 0 0 1 .157.352c0 .143-.052.26-.157.351l-2.793 2.872a.496.496 0 0 1-.859-.362c0-.136.046-.257.137-.361l2.304-2.5ZM9.61.812a9.26 9.26 0 0 1 3.74.762 9.797 9.797 0 0 1 3.047 2.06 9.797 9.797 0 0 1 2.061 3.048 9.26 9.26 0 0 1 .762 3.74 9.26 9.26 0 0 1-.762 3.74 9.797 9.797 0 0 1-2.06 3.047 9.797 9.797 0 0 1-3.047 2.06 9.26 9.26 0 0 1-3.74.762 9.26 9.26 0 0 1-3.74-.761 9.797 9.797 0 0 1-3.048-2.061 9.797 9.797 0 0 1-2.06-3.047A9.26 9.26 0 0 1 0 10.422a9.26 9.26 0 0 1 .762-3.74 9.797 9.797 0 0 1 2.06-3.047 9.797 9.797 0 0 1 3.047-2.06A9.26 9.26 0 0 1 9.61.812Zm0 17.97a8.107 8.107 0 0 0 3.252-.655 8.358 8.358 0 0 0 2.647-1.797 8.7 8.7 0 0 0 1.797-2.656 8.004 8.004 0 0 0 .664-3.252 8.005 8.005 0 0 0-.664-3.252 8.7 8.7 0 0 0-1.797-2.656 8.357 8.357 0 0 0-2.647-1.797 8.107 8.107 0 0 0-3.252-.655 8.107 8.107 0 0 0-3.252.655A8.474 8.474 0 0 0 1.904 7.17a8.107 8.107 0 0 0-.654 3.252c0 1.159.218 2.243.654 3.252a8.474 8.474 0 0 0 4.453 4.453 8.107 8.107 0 0 0 3.252.654Z" fill="#3A3A3A"/></svg>