<svg width="40" height="40" fill="none" xmlns="http://www.w3.org/2000/svg"><path d="M27.599 12.179A10.758 10.758 0 0 0 19.933 9c-5.977 0-10.84 4.863-10.84 10.84 0 1.909.498 3.774 1.445 5.42L9 30.875l5.747-1.509a10.806 10.806 0 0 0 5.18 1.319h.006c5.971 0 10.942-4.864 10.942-10.84 0-2.896-1.23-5.615-3.276-7.666Zm-7.666 16.68a8.994 8.994 0 0 1-4.59-1.256l-.327-.195-3.409.894.909-3.325-.215-.342a8.98 8.98 0 0 1-1.377-4.795c0-4.966 4.043-9.009 9.014-9.009a8.93 8.93 0 0 1 6.367 2.642c1.699 1.704 2.744 3.964 2.739 6.372 0 4.97-4.146 9.013-9.111 9.013Zm4.941-6.749c-.268-.136-1.601-.79-1.85-.879-.25-.092-.43-.136-.61.137-.182.274-.7.88-.86 1.065-.156.18-.318.205-.586.068-1.592-.796-2.637-1.42-3.687-3.223-.278-.478.279-.444.796-1.48.088-.18.044-.336-.024-.473-.069-.136-.61-1.47-.835-2.011-.22-.528-.445-.455-.61-.464-.157-.01-.338-.01-.518-.01s-.474.068-.723.337c-.249.273-.947.928-.947 2.26 0 1.333.972 2.623 1.103 2.803.137.18 1.91 2.915 4.63 4.092 1.718.742 2.392.806 3.251.679.523-.078 1.602-.655 1.826-1.29.225-.634.225-1.176.157-1.288-.064-.122-.244-.19-.513-.323Z" fill="#fff"/><rect x="1" y="1" width="38" height="38" rx="19" stroke="#fff" stroke-width="2"/></svg>