<svg width="46" height="46" fill="none" xmlns="http://www.w3.org/2000/svg"><path d="M39.11 6.684C34.808 2.372 29.08 0 22.99 0 10.422 0 .195 10.227.195 22.795a22.82 22.82 0 0 0 3.04 11.397L0 46l12.085-3.173A22.725 22.725 0 0 0 22.98 45.6h.01C35.547 45.6 46 35.373 46 22.805c0-6.089-2.587-11.808-6.89-16.12ZM22.99 41.76c-3.41 0-6.746-.913-9.652-2.639l-.688-.41-7.167 1.879 1.91-6.993-.452-.718a18.884 18.884 0 0 1-2.895-10.083C4.046 12.352 12.547 3.85 23 3.85c5.062 0 9.816 1.972 13.39 5.555 3.572 3.584 5.77 8.338 5.76 13.4 0 10.453-8.718 18.954-19.16 18.954Zm10.39-14.19c-.564-.287-3.367-1.663-3.89-1.848-.524-.195-.904-.288-1.284.288-.38.575-1.468 1.848-1.807 2.238-.329.38-.668.431-1.233.144-3.347-1.674-5.544-2.988-7.752-6.777-.585-1.006.586-.934 1.674-3.111.185-.38.092-.709-.051-.996-.144-.288-1.284-3.09-1.756-4.23-.462-1.11-.935-.956-1.284-.976-.328-.02-.708-.02-1.088-.02-.38 0-.996.143-1.52.708-.523.575-1.992 1.95-1.992 4.754 0 2.803 2.044 5.514 2.32 5.894.288.38 4.016 6.13 9.735 8.604 3.614 1.56 5.031 1.694 6.838 1.427 1.099-.164 3.368-1.376 3.84-2.71.473-1.335.473-2.475.329-2.711-.134-.257-.514-.4-1.078-.678Z" fill="#fff"/></svg>